<svg xmlns="http://www.w3.org/2000/svg" x="0px" y="0px" width="100" height="100" viewBox="0,0,256,256">
<g fill="none" fill-rule="nonzero" stroke="none" stroke-width="1" stroke-linecap="butt" stroke-linejoin="miter" stroke-miterlimit="10" stroke-dasharray="" stroke-dashoffset="0" font-family="none" font-weight="none" font-size="none" text-anchor="none" style="mix-blend-mode: normal"><g transform="scale(5.33333,5.33333)"><path d="M44,11.11v25.78c0,1.27 -0.79,2.4 -1.98,2.82l-8.82,4.14l0.8,-10.85v-18l-0.8,-10.85l8.82,4.14c1.19,0.42 1.98,1.55 1.98,2.82z" fill="#fb9f8f"></path><path d="M4.416,33.815l3.159,1.95c0.733,0.44 1.664,0.365 2.318,-0.185l24.107,-19.642v-10.585c0,-1.198 -1.482,-1.758 -2.275,-0.86l-22.725,25.38z" fill="#e33c1e"></path><path d="M4.416,14.185l3.159,-1.95c0.733,-0.44 1.664,-0.365 2.318,0.185l24.107,19.643v10.585c0,1.198 -1.482,1.758 -2.275,0.86l-22.725,-25.381z" fill="#ef644c"></path><path d="M9,18.13v11.74l-3.2,3.74c-0.58,0.76 -1.8,0.35 -1.8,-0.61v-18c0,-0.96 1.22,-1.37 1.8,-0.61z" fill="#e74528"></path></g></g>
</svg>